HIERARCHY
ROOT Hips
{
  OFFSET -31.5692 30.0904 122.763
  CHANNELS 6 Xposition Yposition Zposition Zrotation Xrotation Yrotation
  JOINT LeftUpLeg
  {
    OFFSET 8.64259 1.95398 -2.38835
    CHANNELS 3 Zrotation Xrotation Yrotation
    JOINT LeftLeg
    {
      OFFSET 43.7702 0 0
      CHANNELS 3 Zrotation Xrotation Yrotation
      JOINT LeftFoot
      {
        OFFSET 40.6238 0 0
        CHANNELS 3 Zrotation Xrotation Yrotation
        JOINT LeftToeBase
        {
          OFFSET 12.7242 0 0
          CHANNELS 3 Zrotation Xrotation Yrotation
          End Site
          {
            OFFSET 0 0 0
          }
        }
      }
    }
  }
  JOINT RightUpLeg
  {
    OFFSET -8.2249 1.95398 -2.59336
    CHANNELS 3 Zrotation Xrotation Yrotation
    JOINT RightLeg
    {
      OFFSET 43.5653 0 0
      CHANNELS 3 Zrotation Xrotation Yrotation
      JOINT RightFoot
      {
        OFFSET 40.6238 0 0
        CHANNELS 3 Zrotation Xrotation Yrotation
        JOINT RightToeBase
        {
          OFFSET 12.7242 0 0
          CHANNELS 3 Zrotation Xrotation Yrotation
          End Site
          {
            OFFSET 0 0 0
          }
        }
      }
    }
  }
  JOINT Spine
  {
    OFFSET 0.165834 0.87714 6.61349
    CHANNELS 3 Zrotation Xrotation Yrotation
    JOINT Spine1
    {
      OFFSET 7.38963 1.71661e-005 0
      CHANNELS 3 Zrotation Xrotation Yrotation
      JOINT Spine2
      {
        OFFSET 11.9445 1.14441e-005 0
        CHANNELS 3 Zrotation Xrotation Yrotation
        JOINT Spine3
        {
          OFFSET 14.7254 4.19617e-005 0
          CHANNELS 3 Zrotation Xrotation Yrotation
          JOINT Spine4
          {
            OFFSET 10.9679 0 0
            CHANNELS 3 Zrotation Xrotation Yrotation
            JOINT RightShoulder
            {
              OFFSET 2.46616 -1.6653 3.69651
              CHANNELS 3 Zrotation Xrotation Yrotation
              JOINT RightArm
              {
                OFFSET 13.0012 0 0
                CHANNELS 3 Zrotation Xrotation Yrotation
                JOINT RightForeArm
                {
                  OFFSET 28.7848 1.62311e-005 0
                  CHANNELS 3 Zrotation Xrotation Yrotation
                  JOINT RightHand
                  {
                    OFFSET 26.5688 1.62095e-005 0
                    CHANNELS 3 Zrotation Xrotation Yrotation
                    End Site
                    {
                      OFFSET 0 0 0
                    }
                  }
                }
              }
            }
            JOINT LeftShoulder
            {
              OFFSET 2.38034 -1.29275 -3.7523
              CHANNELS 3 Zrotation Xrotation Yrotation
              JOINT LeftArm
              {
                OFFSET 16.3182 6.07031e-005 0
                CHANNELS 3 Zrotation Xrotation Yrotation
                JOINT LeftForeArm
                {
                  OFFSET 27.0901 0 0
                  CHANNELS 3 Zrotation Xrotation Yrotation
                  JOINT LeftHand
                  {
                    OFFSET 24.5451 1.51738e-005 0
                    CHANNELS 3 Zrotation Xrotation Yrotation
                    End Site
                    {
                      OFFSET 0 0 0
                    }
                  }
                }
              }
            }
            JOINT Neck
            {
              OFFSET 5.0226 -0.0266342 0
              CHANNELS 3 Zrotation Xrotation Yrotation
              JOINT Head
              {
                OFFSET 6.69364 2.86102e-005 0
                CHANNELS 3 Zrotation Xrotation Yrotation
                End Site
                {
                  OFFSET 0 0 0
                }
              }
            }
          }
        }
      }
    }
  }
}
MOTION
Frames:	12
Frame Time:	0.0416667
-325.434 89.2835 300.945 97.1338 32.994 90.8713 -171.028 -30.159 88.5874 -2.76833 -1.74375 0.551559 82.1721 13.8929 -1.53898 24.6214 -4.31409 5.99374 -176.654 24.6522 103.258 -15.0078 -13.4254 -0.691085 67.7517 -4.82032 -2.42851 27.0188 0.0414159 3.57522 0.560605 8.27967 -90.8265 10.3173 0.738904 -1.7055 -1.35462 0.663139 -1.73636 -23.8849 1.21726 -1.40466 -3.87225 1.21727 -1.40466 89.9241 -33.9513 -105.473 34.1202 -0.934137 7.857 5.41278 -28.9558 -10.7695 -21.0093 -0.397922 -8.61548 -88.741 -49.2034 80.4568 -18.3353 1.09298 -36.4231 3.16147 17.348 -7.51999 12.7185 -2.87406 -25.9292 6.87728 0.356944 -12.3281 -4.90217 2.76988 3.25492 
-319.737 89.7099 295.666 98.4518 46.1422 89.2612 -164.28 -25.1592 99.1665 -17.2268 17.5532 0.736661 78.3766 12.718 1.75601 32.1272 -1.58143 10.2025 179.362 26.909 99.714 -24.3432 -7.68255 1.14609 62.2634 0.209488 -3.75106 22.9978 1.7462 3.74952 -0.869688 8.18208 -91.0988 10.4877 -2.23642 -1.98218 -1.18249 -2.32147 -1.88183 -23.7153 -1.53746 -2.56247 -3.70266 -1.53745 -2.56247 90.4222 -33.2096 -104.789 35.3167 0.260069 9.16351 7.28702 -27.6172 -5.92233 -19.4097 -0.942643 -4.61187 -89.0356 -50.5958 80.2878 -19.8696 3.09208 -34.9072 2.7408 19.5343 -6.04317 12.0335 -2.66452 -25.7407 7.4383 0.701042 -9.00459 -5.68512 2.49994 1.90257 
-312.9 90.4909 289.274 99.3095 48.3052 89.2255 -165.279 -18.7548 100.681 -34.6195 21.7072 3.56132 65.7644 3.55513 2.40384 27.6399 -2.1933 5.69397 177.682 25.3745 100.168 -32.7183 -5.36978 2.17037 62.3604 0.635148 -0.884161 19.7189 3.49913 2.6613 -0.973905 7.99471 -91.2665 10.8546 -2.52423 -2.28367 -0.81577 -2.62228 -2.17038 -23.3453 -1.72154 -2.93641 -3.33261 -1.72154 -2.93641 90.2522 -32.6976 -105.287 36.7786 1.08801 10.4933 7.29756 -24.5162 -4.39392 -17.444 -0.467248 -7.39153 -89.2165 -50.7123 80.0376 -21.2175 7.1122 -30.1955 -0.253577 24.2283 -2.5123 8.26659 -1.5239 -24.3486 6.11621 0.507193 -7.02261 -6.39471 1.80164 1.94553 
-306.975 91.6559 283.715 102.277 48.6465 87.8526 -167.308 -8.3285 101.671 -54.1259 23.8846 5.21946 54.2973 -4.50647 0.0336642 15.6698 -5.01784 -3.03784 177.037 19.1698 101.707 -35.5528 -6.4086 2.52292 66.5464 -2.86862 -3.21208 21.4007 2.86481 2.22135 -0.727888 8.19761 -91.2422 10.4532 -2.01947 -2.29 -1.21805 -2.11826 -2.19894 -23.7427 -1.23816 -2.79075 -3.73009 -1.23818 -2.79077 89.9381 -33.6425 -105.552 37.184 -0.169381 8.30409 6.98464 -25.2117 -6.48338 -17.7355 -0.442172 -7.76628 -89.029 -49.4683 80.0753 -23.0519 9.69069 -27.2639 -2.64057 25.2669 0.118316 8.72819 -0.84291 -18.9187 6.76999 -0.506379 -7.76091 -6.6222 0.973936 2.5205 
-302.352 92.9917 279.203 101.746 50.8821 87.6087 -171.476 6.44188 99.4328 -67.2289 16.9749 5.30119 61.1761 -0.251239 0.505256 10.2488 -8.73865 -0.999478 176.68 13.9043 101.221 -33.2421 -4.65701 2.66153 69.2859 -4.86064 -2.95056 23.6768 1.87006 2.07497 -0.584273 8.20092 -91.1854 10.4506 -1.70736 -2.20467 -1.22096 -1.80274 -2.12744 -23.7447 -0.966125 -2.61565 -3.73204 -0.966086 -2.61564 89.8132 -33.1723 -105.953 36.004 -1.76187 3.8944 5.28117 -28.8222 -10.9753 -20.3356 -0.324395 -9.18115 -89.2195 -51.1768 80.1304 -24.4911 8.37954 -22.5089 -2.36972 20.568 -0.00373319 8.04309 -0.603639 -17.0576 5.75598 -1.76492 -7.01129 -5.45958 -0.439494 1.92886 
-297.985 94.2801 274.673 100.743 48.647 85.7546 -172.516 16.9142 93.909 -65.5939 9.43253 2.97677 68.731 4.88588 2.14568 11.9518 -9.83215 2.67878 177.099 8.41188 99.4386 -30.7245 -6.72592 0.755539 71.5885 -5.92624 -2.70691 25.0109 1.38035 1.60718 -0.00280421 8.20062 -90.7564 10.4667 -0.352478 -1.47076 -1.20506 -0.416845 -1.45383 -23.7334 0.105804 -1.50869 -3.72076 0.105788 -1.50869 89.4841 -33.1274 -106.592 33.3364 -3.09113 -1.13336 3.17796 -29.5734 -15.5343 -21.2782 -0.0638791 -10.9922 -88.5283 -51.5436 81.2209 -25.6087 5.61017 -14.1315 -1.68628 16.5728 -0.00271625 3.18259 -0.24729 -19.9995 3.39461 -2.88593 -7.71214 -3.95228 -1.54557 1.22758 
-293.23 95.0472 269.518 99.7746 46.8168 85.1006 -173.753 23.7943 90.9966 -52.2828 2.77514 1.0576 69.6201 5.58727 0.762114 13.9842 -9.59303 4.3606 176.754 1.91852 97.4895 -27.0886 -6.46619 -0.44956 75.0269 -6.89016 1.08979 24.4406 1.57019 1.89487 0.515562 8.22144 -90.4968 10.4346 0.799237 -1.05916 -1.23657 0.751845 -1.0933 -23.7718 1.0806 -0.76999 -3.75914 1.0806 -0.770002 89.537 -31.5734 -107.063 31.018 -3.75386 -6.29209 1.06716 -28.4281 -19.4189 -27.1092 -0.130157 -9.23644 -88.002 -52.1253 82.0969 -23.723 4.09112 -6.02635 -1.63868 10.4282 0.0489399 3.31521 -0.449199 -19.1825 1.90162 -3.55147 -6.43195 -3.39772 -2.50477 -1.47206 
-288.287 94.3987 263.694 99.1066 45.1541 84.6116 -175.783 24.8294 89.0616 -29.6446 -0.486823 -0.213948 65.4631 4.42196 -1.39884 18.1581 -8.09297 6.2391 175.046 -3.95051 95.4475 -25.7642 -10.2072 -0.721051 78.8092 -9.11139 0.819916 25.4699 1.4768 0.315246 0.925541 8.25049 -90.3284 10.3791 1.69356 -0.799921 -1.29108 1.65673 -0.873701 -23.8347 1.85564 -0.253805 -3.82208 1.85566 -0.253806 88.8134 -30.4902 -108.901 26.6148 -3.50079 -10.5944 -0.791796 -28.5513 -22.4844 -29.2349 -0.237558 -8.50687 -87.6643 -53.8257 82.8754 -19.8485 1.58763 1.66337 -0.900542 9.45224 -0.650024 3.99626 -0.589404 -18.6008 1.70663 -3.82664 -4.39991 -2.63813 -3.12635 -3.2865 
-282.629 92.8598 257.338 99.1523 43.5588 84.4905 -177.217 23.4185 89.0221 -8.49505 2.30381 -0.736039 61.5586 3.49225 -1.60207 17.7659 -8.18773 5.93516 173.411 -10.6481 93.4689 -24.4493 -13.173 -1.03163 81.985 -11.3575 0.549716 27.2897 0.728329 -0.140948 1.27832 8.32939 -90.266 10.2243 2.4256 -0.735077 -1.44464 2.39089 -0.841178 -23.998 2.53432 0.0283605 -3.98533 2.5343 0.02835 88.3111 -29.4924 -110.309 21.754 -2.5975 -15.6732 -1.78473 -30.9392 -23.1423 -22.8218 0.256776 -12.9474 -87.2448 -53.7092 83.4615 -18.1076 -1.65853 6.70195 0.556879 6.71292 -1.10203 4.06196 -0.53153 -16.2246 2.13911 -4.42304 -3.32832 -2.14332 -3.88543 -3.83405 
-276.336 90.9342 250.394 99.0114 40.7949 84.5287 -176.997 25.0566 89.0173 -8.39061 -1.61352 -1.57753 62.4476 2.54648 -3.39228 19.3071 -8.41953 8.30784 170.51 -17.6255 89.8606 -22.8776 -18.0144 -1.34993 83.1631 -13.5254 -0.483008 29.95 -0.63693 0.477396 1.71768 8.34426 -90.2022 10.1993 3.33034 -0.683427 -1.46768 3.29701 -0.829493 -24.037 3.38159 0.350233 -4.02436 3.38158 0.350232 88.7523 -28.794 -109.735 19.694 -1.07311 -19.1832 -5.52994 -39.9719 -25.0416 -20.5988 -0.335425 -12.3787 -86.4669 -53.2617 84.5175 -17.05 -2.67537 8.61933 1.18989 4.85022 0.0786825 2.82517 -0.268404 -13.108 4.47188 -4.89575 -2.85011 -4.05328 -4.28981 -4.03158 
-269.461 90.9268 242.638 98.2529 38.0896 83.2111 -176.086 25.6575 87.258 -16.1577 -0.510672 -2.12087 55.469 -2.73316 -3.01577 17.2376 -8.52123 5.9377 166.557 -20.9708 83.7165 -24.0014 -23.4704 -2.83657 75.6978 -10.0758 -2.76431 38.8453 -4.84077 2.91421 1.97062 8.37446 -89.8804 10.1318 3.98135 -0.0983296 -1.53306 3.97315 -0.273744 -24.1149 3.82653 1.10458 -4.1022 3.82654 1.10458 89.2213 -28.1736 -109.061 21.5885 -0.605591 -21.1592 -5.10435 -34.6358 -24.734 -24.7525 0.00796008 -11.8414 -86.8504 -51.6802 83.7199 -18.981 -3.13826 8.02783 1.70454 4.46466 -0.00181515 2.29899 -0.0576029 -10.4057 7.6178 -5.27375 -4.41808 -5.89387 -4.18764 -3.87363 
-262.491 91.7746 234.981 98.0765 37.2191 81.7416 -173.926 26.1757 85.1066 -28.3606 3.28911 -3.6451 60.0537 -1.15013 -1.1703 10.8212 -11.3687 4.27239 167.275 -17.1032 82.2439 -37.7161 -23.6019 -6.12276 64.8049 -2.16027 -2.8553 38.061 -5.04965 7.46842 1.66676 8.10767 -89.6336 10.6552 3.48817 0.410458 -1.01111 3.50283 0.25635 -23.5786 3.20339 1.44085 -3.56593 3.20339 1.44084 88.2503 -28.6035 -110.818 24.8549 -2.88265 -19.2277 -4.28206 -34.9839 -24.725 -23.2372 0.208976 -13.6516 -86.6465 -52.2731 84.1105 -20.2964 -1.8818 9.45054 1.03588 2.89448 -0.0111773 1.23105 -0.0650994 -10.8974 6.19879 -3.95872 -4.72351 -7.01526 -2.85014 -4.35416 
